<?xml version="1.0" encoding="UTF-8" standalone="no"?>
<!-- Created with Inkscape (http://www.inkscape.org/) -->

<svg
   width="630"
   height="500"
   viewBox="0 0 630 500"
   version="1.1"
   id="svg5"
   inkscape:version="1.2 (dc2aedaf03, 2022-05-15)"
   sodipodi:docname="ItchIcon.svg"
   inkscape:export-filename="ItchIcon.png"
   inkscape:export-xdpi="96"
   inkscape:export-ydpi="96"
   xml:space="preserve"
   xmlns:inkscape="http://www.inkscape.org/namespaces/inkscape"
   xmlns:sodipodi="http://sodipodi.sourceforge.net/DTD/sodipodi-0.dtd"
   xmlns="http://www.w3.org/2000/svg"
   xmlns:svg="http://www.w3.org/2000/svg"><sodipodi:namedview
     id="namedview7"
     pagecolor="#505050"
     bordercolor="#eeeeee"
     borderopacity="1"
     inkscape:showpageshadow="0"
     inkscape:pageopacity="0"
     inkscape:pagecheckerboard="0"
     inkscape:deskcolor="#505050"
     inkscape:document-units="px"
     showgrid="false"
     inkscape:zoom="0.94603153"
     inkscape:cx="203.48159"
     inkscape:cy="325.57054"
     inkscape:window-width="1920"
     inkscape:window-height="1017"
     inkscape:window-x="-8"
     inkscape:window-y="-8"
     inkscape:window-maximized="1"
     inkscape:current-layer="layer1"><inkscape:grid
       type="xygrid"
       id="grid132"
       originx="0"
       originy="0" /></sodipodi:namedview><defs
     id="defs2"><inkscape:path-effect
       effect="spiro"
       id="path-effect1678"
       is_visible="true"
       lpeversion="1" /><inkscape:path-effect
       effect="bspline"
       id="path-effect1553"
       is_visible="true"
       lpeversion="1"
       weight="33.333333"
       steps="2"
       helper_size="0"
       apply_no_weight="true"
       apply_with_weight="true"
       only_selected="false" /><inkscape:path-effect
       effect="bspline"
       id="path-effect1135"
       is_visible="true"
       lpeversion="1"
       weight="33.333333"
       steps="2"
       helper_size="0"
       apply_no_weight="true"
       apply_with_weight="true"
       only_selected="false" /><inkscape:path-effect
       effect="bspline"
       id="path-effect1135-9"
       is_visible="true"
       lpeversion="1"
       weight="33.333333"
       steps="2"
       helper_size="0"
       apply_no_weight="true"
       apply_with_weight="true"
       only_selected="false" /><inkscape:path-effect
       effect="bspline"
       id="path-effect1135-9-7"
       is_visible="true"
       lpeversion="1"
       weight="33.333333"
       steps="2"
       helper_size="0"
       apply_no_weight="true"
       apply_with_weight="true"
       only_selected="false" /><inkscape:path-effect
       effect="bspline"
       id="path-effect1135-9-7-1"
       is_visible="true"
       lpeversion="1"
       weight="33.333333"
       steps="2"
       helper_size="0"
       apply_no_weight="true"
       apply_with_weight="true"
       only_selected="false" /><inkscape:path-effect
       effect="bspline"
       id="path-effect1135-9-7-1-4"
       is_visible="true"
       lpeversion="1"
       weight="33.333333"
       steps="2"
       helper_size="0"
       apply_no_weight="true"
       apply_with_weight="true"
       only_selected="false" /><inkscape:path-effect
       effect="bspline"
       id="path-effect1135-9-7-1-0"
       is_visible="true"
       lpeversion="1"
       weight="33.333333"
       steps="2"
       helper_size="0"
       apply_no_weight="true"
       apply_with_weight="true"
       only_selected="false" /><inkscape:path-effect
       effect="bspline"
       id="path-effect1135-9-7-1-0-6"
       is_visible="true"
       lpeversion="1"
       weight="33.333333"
       steps="2"
       helper_size="0"
       apply_no_weight="true"
       apply_with_weight="true"
       only_selected="false" /><inkscape:path-effect
       effect="bspline"
       id="path-effect1135-3"
       is_visible="true"
       lpeversion="1"
       weight="33.333333"
       steps="2"
       helper_size="0"
       apply_no_weight="true"
       apply_with_weight="true"
       only_selected="false" /><inkscape:path-effect
       effect="bspline"
       id="path-effect1135-9-75"
       is_visible="true"
       lpeversion="1"
       weight="33.333333"
       steps="2"
       helper_size="0"
       apply_no_weight="true"
       apply_with_weight="true"
       only_selected="false" /><inkscape:path-effect
       effect="bspline"
       id="path-effect1135-9-7-8"
       is_visible="true"
       lpeversion="1"
       weight="33.333333"
       steps="2"
       helper_size="0"
       apply_no_weight="true"
       apply_with_weight="true"
       only_selected="false" /><inkscape:path-effect
       effect="bspline"
       id="path-effect1135-9-7-1-5"
       is_visible="true"
       lpeversion="1"
       weight="33.333333"
       steps="2"
       helper_size="0"
       apply_no_weight="true"
       apply_with_weight="true"
       only_selected="false" /><inkscape:path-effect
       effect="bspline"
       id="path-effect1135-9-7-1-4-6"
       is_visible="true"
       lpeversion="1"
       weight="33.333333"
       steps="2"
       helper_size="0"
       apply_no_weight="true"
       apply_with_weight="true"
       only_selected="false" /><inkscape:path-effect
       effect="bspline"
       id="path-effect1135-9-7-1-0-66"
       is_visible="true"
       lpeversion="1"
       weight="33.333333"
       steps="2"
       helper_size="0"
       apply_no_weight="true"
       apply_with_weight="true"
       only_selected="false" /><inkscape:path-effect
       effect="bspline"
       id="path-effect1135-9-7-1-0-6-8"
       is_visible="true"
       lpeversion="1"
       weight="33.333333"
       steps="2"
       helper_size="0"
       apply_no_weight="true"
       apply_with_weight="true"
       only_selected="false" /><inkscape:path-effect
       effect="bspline"
       id="path-effect1135-3-0"
       is_visible="true"
       lpeversion="1"
       weight="33.333333"
       steps="2"
       helper_size="0"
       apply_no_weight="true"
       apply_with_weight="true"
       only_selected="false" /><inkscape:path-effect
       effect="bspline"
       id="path-effect1135-9-75-9"
       is_visible="true"
       lpeversion="1"
       weight="33.333333"
       steps="2"
       helper_size="0"
       apply_no_weight="true"
       apply_with_weight="true"
       only_selected="false" /><inkscape:path-effect
       effect="bspline"
       id="path-effect1135-9-7-8-8"
       is_visible="true"
       lpeversion="1"
       weight="33.333333"
       steps="2"
       helper_size="0"
       apply_no_weight="true"
       apply_with_weight="true"
       only_selected="false" /><inkscape:path-effect
       effect="bspline"
       id="path-effect1135-9-7-1-5-2"
       is_visible="true"
       lpeversion="1"
       weight="33.333333"
       steps="2"
       helper_size="0"
       apply_no_weight="true"
       apply_with_weight="true"
       only_selected="false" /><inkscape:path-effect
       effect="bspline"
       id="path-effect1135-9-7-1-4-6-7"
       is_visible="true"
       lpeversion="1"
       weight="33.333333"
       steps="2"
       helper_size="0"
       apply_no_weight="true"
       apply_with_weight="true"
       only_selected="false" /><inkscape:path-effect
       effect="bspline"
       id="path-effect1135-9-7-1-0-66-4"
       is_visible="true"
       lpeversion="1"
       weight="33.333333"
       steps="2"
       helper_size="0"
       apply_no_weight="true"
       apply_with_weight="true"
       only_selected="false" /><inkscape:path-effect
       effect="bspline"
       id="path-effect1135-9-7-1-0-6-8-8"
       is_visible="true"
       lpeversion="1"
       weight="33.333333"
       steps="2"
       helper_size="0"
       apply_no_weight="true"
       apply_with_weight="true"
       only_selected="false" /></defs><g
     inkscape:label="Layer 1"
     inkscape:groupmode="layer"
     id="layer1"><rect
       style="fill:#000000;stroke:#000000;stroke-width:18.8976;stroke-dasharray:none"
       id="rect3235"
       width="678.62433"
       height="533.80884"
       x="1.0570472"
       y="2.1140945" /><circle
       style="fill:#000000;stroke:#ffffff;stroke-width:9.59179;stroke-dasharray:none"
       id="path3013"
       cx="156.10904"
       cy="136.60995"
       r="127.58286" /><path
       style="fill:none;stroke:#ffffff;stroke-width:9.59179;stroke-dasharray:none"
       d="M 205.30095,223.69751 A 74.358636,36.301076 16.977677 0 1 123.5831,236.70388 74.358636,36.301076 16.977677 0 1 63.064991,180.2722 74.358636,36.301076 16.977677 0 1 144.78286,167.26583 74.358636,36.301076 16.977677 0 1 205.30095,223.69751 Z"
       id="path186-7" /><rect
       style="fill:#000000;stroke:#000000;stroke-width:9.59179;stroke-dasharray:none"
       id="rect1974"
       width="147.81487"
       height="130.93422"
       x="113.66166"
       y="24.568661"
       transform="rotate(16.977677)" /><ellipse
       style="fill:none;stroke:#ffffff;stroke-width:9.59179;stroke-dasharray:none"
       id="path186"
       cx="187.29836"
       cy="18.560209"
       rx="74.358627"
       ry="36.301075"
       transform="rotate(16.977677)" /><g
       id="g1972"
       transform="matrix(0.28218745,0.08615316,-0.11950566,0.3914308,112.89943,15.134176)"
       style="stroke-width:27.6028;stroke-dasharray:none"><path
         style="fill:none;stroke:#ffffff;stroke-width:27.6028;stroke-dasharray:none"
         d="m 1.8351255,94.203107 c 0,110.924133 0,221.847273 0,332.769413"
         id="path1133"
         inkscape:original-d="m 1.8351255,94.203107 c 0.001,110.924133 0.001,221.847273 0,332.769413"
         inkscape:path-effect="#path-effect1135" /><path
         style="fill:none;stroke:#ffffff;stroke-width:27.6028;stroke-dasharray:none"
         d="m 75.240144,152.92712 c 0,110.92413 0,221.84727 0,332.76941"
         id="path1133-2"
         inkscape:original-d="m 75.240144,152.92712 c 9.99e-4,110.92413 9.99e-4,221.84727 0,332.76941"
         inkscape:path-effect="#path-effect1135-9" /><path
         style="fill:none;stroke:#ffffff;stroke-width:27.6028;stroke-dasharray:none"
         d="m 165.16129,174.33692 c 0,110.92413 0,221.84727 0,332.76941"
         id="path1133-2-3"
         inkscape:original-d="m 165.16129,174.33692 c 0.001,110.92413 0.001,221.84727 0,332.76941"
         inkscape:path-effect="#path-effect1135-9-7" /><path
         style="fill:none;stroke:#ffffff;stroke-width:27.6028;stroke-dasharray:none"
         d="m 251.41219,177.39546 c 0,110.92413 0,221.84727 0,332.76941"
         id="path1133-2-3-8"
         inkscape:original-d="m 251.41219,177.39546 c 10e-4,110.92413 10e-4,221.84727 0,332.76941"
         inkscape:path-effect="#path-effect1135-9-7-1" /><path
         style="fill:none;stroke:#ffffff;stroke-width:27.6028;stroke-dasharray:none"
         d="m 340.72162,171.27837 c 0,110.92413 0,221.84727 0,332.76941"
         id="path1133-2-3-8-9"
         inkscape:original-d="m 340.72162,171.27837 c 0.001,110.92413 0.001,221.84727 0,332.76941"
         inkscape:path-effect="#path-effect1135-9-7-1-4" /><path
         style="fill:none;stroke:#ffffff;stroke-width:27.6028;stroke-dasharray:none"
         d="m 430.03107,152.92713 c 0,110.92412 0,221.84727 0,332.76941"
         id="path1133-2-3-8-1"
         inkscape:original-d="m 430.03107,152.92713 c 10e-4,110.92412 10e-4,221.84727 0,332.76941"
         inkscape:path-effect="#path-effect1135-9-7-1-0" /><path
         style="fill:none;stroke:#ffffff;stroke-width:27.6028;stroke-dasharray:none"
         d="m 505.88292,93.591405 c 0,110.924115 0,221.847265 0,332.769405"
         id="path1133-2-3-8-1-1"
         inkscape:path-effect="#path-effect1135-9-7-1-0-6"
         inkscape:original-d="m 505.88292,93.591405 c 10e-4,110.924115 10e-4,221.847265 0,332.769405" /></g><rect
       style="fill:#000000;stroke:#000000;stroke-width:9.59179;stroke-dasharray:none"
       id="rect1974-8"
       width="147.81487"
       height="130.93422"
       x="166.32791"
       y="260.69"
       transform="rotate(16.977677)" /><text
       xml:space="preserve"
       style="font-style:normal;font-variant:normal;font-weight:normal;font-stretch:normal;font-size:55.5375px;font-family:Rubik;-inkscape-font-specification:Rubik;fill:#ffffff;stroke:#ffffff;stroke-width:2.11361;stroke-dasharray:none"
       x="28.46929"
       y="335.85181"
       id="text3291"
       transform="scale(1.0578309,0.94533071)"><tspan
         sodipodi:role="line"
         id="tspan3289"
         x="28.46929"
         y="335.85181"
         style="font-style:normal;font-variant:normal;font-weight:normal;font-stretch:normal;font-family:Roboto;-inkscape-font-specification:Roboto;stroke-width:2.11361;stroke-dasharray:none">Conveniently Placed</tspan><tspan
         sodipodi:role="line"
         x="28.46929"
         y="406.34167"
         style="font-style:normal;font-variant:normal;font-weight:normal;font-stretch:normal;font-family:Roboto;-inkscape-font-specification:Roboto;stroke-width:2.11361;stroke-dasharray:none"
         id="tspan414">Exploding Barrels</tspan></text><text
       xml:space="preserve"
       style="font-style:normal;font-variant:normal;font-weight:normal;font-stretch:normal;font-size:42.6667px;font-family:Roboto;-inkscape-font-specification:Roboto;fill:#ffffff;stroke:#ffffff;stroke-width:0.1;stroke-dasharray:none"
       x="-181.81212"
       y="280.11752"
       id="text2455"><tspan
         sodipodi:role="line"
         id="tspan2453" /></text><g
       inkscape:label="Layer 1"
       id="layer1-7"
       transform="matrix(3.3152205,-1.8149771,1.8149771,3.3152205,494.38154,420.14968)"
       style="stroke:#333333;stroke-width:2;stroke-dasharray:none"><path
         id="path3899"
         style="fill:none;fill-opacity:0.999121;stroke:#333333;stroke-width:2;stroke-dasharray:none"
         d="m 21.939229,20.996651 a 12.543262,12.543262 0 0 0 -0.0072,-0.0083 12.543262,12.543262 0 0 0 -0.216008,-0.233061 12.543262,12.543262 0 0 0 -0.221692,-0.227376 12.543262,12.543262 0 0 0 -0.227893,-0.222209 12.543262,12.543262 0 0 0 -0.233061,-0.216007 12.543262,12.543262 0 0 0 -0.238228,-0.209806 12.543262,12.543262 0 0 0 -0.243913,-0.204122 12.543262,12.543262 0 0 0 -0.248563,-0.197404 12.543262,12.543262 0 0 0 -0.253732,-0.191203 12.543262,12.543262 0 0 0 -0.258898,-0.185002 12.543262,12.543262 0 0 0 -0.263034,-0.178283 12.543262,12.543262 0 0 0 -0.267167,-0.171566 12.543262,12.543262 0 0 0 -0.271818,-0.164331 12.543262,12.543262 0 0 0 -0.275952,-0.15813 12.543262,12.543262 0 0 0 -0.280086,-0.150379 12.543262,12.543262 0 0 0 -0.283187,-0.14366 12.543262,12.543262 0 0 0 -0.287321,-0.136426 12.543262,12.543262 0 0 0 -0.290421,-0.128674 12.543262,12.543262 0 0 0 -0.293523,-0.121957 12.543262,12.543262 0 0 0 -0.296622,-0.114204 12.543262,12.543262 0 0 0 -0.299207,-0.106454 12.543262,12.543262 0 0 0 -0.30179,-0.0987 12.543262,12.543262 0 0 0 -0.304374,-0.09147 12.543262,12.543262 0 0 0 -0.306958,-0.08372 12.543262,12.543262 0 0 0 -0.308509,-0.07545 12.543262,12.543262 0 0 0 -0.310575,-0.06821 12.543262,12.543262 0 0 0 -0.312126,-0.05994 12.543262,12.543262 0 0 0 -0.313159,-0.05219 12.543262,12.543262 0 0 0 -0.314709,-0.04393 12.543262,12.543262 0 0 0 -0.315743,-0.03617 12.543262,12.543262 0 0 0 -0.316777,-0.02791 12.543262,12.543262 0 0 0 -0.316776,-0.02015 12.543262,12.543262 0 0 0 -0.317811,-0.0124 12.543262,12.543262 0 0 0 -0.31781,-0.0041 12.543262,12.543262 0 0 0 -0.93741,0.03514 12.543262,12.543262 0 0 0 -0.931726,0.10542 12.543262,12.543262 0 0 0 -0.9219077,0.174149 12.543262,12.543262 0 0 0 -0.9058879,0.242879 12.543262,12.543262 0 0 0 -0.885734,0.309542 12.543262,12.543262 0 0 0 -0.8593791,0.375171 12.543262,12.543262 0 0 0 -0.8294067,0.438216 12.543262,12.543262 0 0 0 -0.7942668,0.499195 12.543262,12.543262 0 0 0 -0.7549927,0.557071 12.543262,12.543262 0 0 0 -0.7105509,0.611849 12.543262,12.543262 0 0 0 -0.6635254,0.663526 12.543262,12.543262 0 0 0 -0.052193,0.06098 12.543262,12.543262 0 0 0 9.3064082,4.148584 12.543262,12.543262 0 0 0 9.255249,-4.078821 z" /><path
         id="path4000"
         style="fill:none;fill-opacity:0.999121;stroke:#333333;stroke-width:2;stroke-dasharray:none"
         d="m 12.68398,-0.01136882 a 12.543262,12.543262 0 0 0 -2.7145627,0.30024008 12.543262,12.543262 0 0 1 0.021704,0.11058756 12.543262,12.543262 0 0 1 0.054261,0.31884359 12.543262,12.543262 0 0 1 0.04547,0.31936039 12.543262,12.543262 0 0 1 0.03721,0.3209106 12.543262,12.543262 0 0 1 0.02894,0.3219442 12.543262,12.543262 0 0 1 0.02119,0.3219442 12.543262,12.543262 0 0 1 0.0124,0.3229777 12.543262,12.543262 0 0 1 0.0041,0.3229777 12.543262,12.543262 0 0 1 -0.03514,0.9374104 A 12.543262,12.543262 0 0 1 10.054683,4.5180705 12.543262,12.543262 0 0 1 9.8800171,5.4394613 12.543262,12.543262 0 0 1 9.6371379,6.3453491 12.543262,12.543262 0 0 1 9.327596,7.2310832 12.543262,12.543262 0 0 1 8.9524251,8.0904622 12.543262,12.543262 0 0 1 8.514209,8.919869 12.543262,12.543262 0 0 1 8.0150146,9.7141357 12.543262,12.543262 0 0 1 7.4579427,10.469128 12.543262,12.543262 0 0 1 6.8460937,11.180196 12.543262,12.543262 0 0 1 6.1830851,11.843205 12.543262,12.543262 0 0 1 5.4720174,12.455054 12.543262,12.543262 0 0 1 4.7170247,13.012126 12.543262,12.543262 0 0 1 3.922758,13.51132 a 12.543262,12.543262 0 0 1 -0.82889,0.438216 12.543262,12.543262 0 0 1 -0.8598958,0.375171 12.543262,12.543262 0 0 1 -0.8852173,0.309542 12.543262,12.543262 0 0 1 -0.90640464,0.242879 12.543262,12.543262 0 0 1 -0.0687296,0.01292 12.543262,12.543262 0 0 0 3.00395104,6.036841 12.543262,12.543262 0 0 1 0.052193,-0.06098 12.543262,12.543262 0 0 1 0.6635253,-0.663526 12.543262,12.543262 0 0 1 0.710551,-0.611849 12.543262,12.543262 0 0 1 0.7549927,-0.557071 12.543262,12.543262 0 0 1 0.7942668,-0.499195 12.543262,12.543262 0 0 1 0.8294066,-0.438216 12.543262,12.543262 0 0 1 0.8593792,-0.375171 12.543262,12.543262 0 0 1 0.885734,-0.309542 12.543262,12.543262 0 0 1 0.9058879,-0.242879 12.543262,12.543262 0 0 1 0.9219078,-0.174149 12.543262,12.543262 0 0 1 0.931726,-0.10542 12.543262,12.543262 0 0 1 0.93741,-0.03514 12.543262,12.543262 0 0 1 0.31781,0.0041 12.543262,12.543262 0 0 1 0.317811,0.0124 12.543262,12.543262 0 0 1 0.316776,0.02015 12.543262,12.543262 0 0 1 0.316777,0.02791 12.543262,12.543262 0 0 1 0.315743,0.03617 12.543262,12.543262 0 0 1 0.314709,0.04393 12.543262,12.543262 0 0 1 0.313159,0.05219 12.543262,12.543262 0 0 1 0.312126,0.05994 12.543262,12.543262 0 0 1 0.310575,0.06821 12.543262,12.543262 0 0 1 0.308509,0.07545 12.543262,12.543262 0 0 1 0.306958,0.08372 12.543262,12.543262 0 0 1 0.304374,0.09147 12.543262,12.543262 0 0 1 0.30179,0.0987 12.543262,12.543262 0 0 1 0.299207,0.106454 12.543262,12.543262 0 0 1 0.296622,0.114204 12.543262,12.543262 0 0 1 0.293523,0.121957 12.543262,12.543262 0 0 1 0.290421,0.128674 12.543262,12.543262 0 0 1 0.287321,0.136426 12.543262,12.543262 0 0 1 0.283187,0.14366 12.543262,12.543262 0 0 1 0.280086,0.150379 12.543262,12.543262 0 0 1 0.275952,0.15813 12.543262,12.543262 0 0 1 0.271818,0.164331 12.543262,12.543262 0 0 1 0.267167,0.171566 12.543262,12.543262 0 0 1 0.263034,0.178283 12.543262,12.543262 0 0 1 0.258898,0.185002 12.543262,12.543262 0 0 1 0.253732,0.191203 12.543262,12.543262 0 0 1 0.248563,0.197404 12.543262,12.543262 0 0 1 0.243913,0.204122 12.543262,12.543262 0 0 1 0.238228,0.209806 12.543262,12.543262 0 0 1 0.233061,0.216007 12.543262,12.543262 0 0 1 0.227893,0.222209 12.543262,12.543262 0 0 1 0.221692,0.227376 12.543262,12.543262 0 0 1 0.216008,0.233061 12.543262,12.543262 0 0 1 0.0072,0.0083 12.543262,12.543262 0 0 0 3.007569,-5.830652 12.543262,12.543262 0 0 1 -0.464571,-0.12454 A 12.543262,12.543262 0 0 1 23.596459,14.731911 12.543262,12.543262 0 0 1 22.737079,14.35674 12.543262,12.543262 0 0 1 21.907707,13.91853 12.543262,12.543262 0 0 1 21.11344,13.419336 12.543262,12.543262 0 0 1 20.358447,12.862264 12.543262,12.543262 0 0 1 19.647896,12.250415 12.543262,12.543262 0 0 1 18.984371,11.587406 12.543262,12.543262 0 0 1 18.372522,10.876339 12.543262,12.543262 0 0 1 17.81545,10.121346 12.543262,12.543262 0 0 1 17.316256,9.3270793 12.543262,12.543262 0 0 1 16.87804,8.4976725 12.543262,12.543262 0 0 1 16.502869,7.6382935 12.543262,12.543262 0 0 1 16.193327,6.7525594 12.543262,12.543262 0 0 1 15.950448,5.8466715 12.543262,12.543262 0 0 1 15.776298,4.9252808 12.543262,12.543262 0 0 1 15.670878,3.9930379 12.543262,12.543262 0 0 1 15.635738,3.0556274 12.543262,12.543262 0 0 1 15.670878,2.118217 12.543262,12.543262 0 0 1 15.776298,1.1859741 12.543262,12.543262 0 0 1 15.922026,0.41444499 12.543262,12.543262 0 0 0 12.68398,-0.01136882 Z" /><path
         id="path3997"
         style="fill:none;fill-opacity:0.999121;stroke:#333333;stroke-width:2;stroke-dasharray:none"
         d="m 15.922026,0.41444499 a 12.543262,12.543262 0 0 0 -0.145728,0.77152911 12.543262,12.543262 0 0 0 -0.10542,0.9322429 12.543262,12.543262 0 0 0 -0.03514,0.9374104 12.543262,12.543262 0 0 0 0.03514,0.9374105 12.543262,12.543262 0 0 0 0.10542,0.9322429 12.543262,12.543262 0 0 0 0.17415,0.9213907 12.543262,12.543262 0 0 0 0.242879,0.9058879 12.543262,12.543262 0 0 0 0.309542,0.8857341 12.543262,12.543262 0 0 0 0.375171,0.859379 12.543262,12.543262 0 0 0 0.438216,0.8294068 12.543262,12.543262 0 0 0 0.499194,0.7942667 12.543262,12.543262 0 0 0 0.557072,0.754993 12.543262,12.543262 0 0 0 0.611849,0.711067 12.543262,12.543262 0 0 0 0.663525,0.663009 12.543262,12.543262 0 0 0 0.710551,0.611849 12.543262,12.543262 0 0 0 0.754993,0.557072 12.543262,12.543262 0 0 0 0.794267,0.499194 12.543262,12.543262 0 0 0 0.829406,0.438216 12.543262,12.543262 0 0 0 0.85938,0.375171 12.543262,12.543262 0 0 0 0.885734,0.309542 12.543262,12.543262 0 0 0 0.464571,0.12454 12.543262,12.543262 0 0 0 0.280603,-2.633947 12.543262,12.543262 0 0 0 -9.305375,-12.11760701 z" /><path
         id="path3963"
         style="fill:none;fill-opacity:0.999121;stroke:#333333;stroke-width:2;stroke-dasharray:none"
         d="M 0.37362061,14.890047 A 12.543262,12.543262 0 0 0 0.44235026,14.877128 12.543262,12.543262 0 0 0 1.3487549,14.634249 12.543262,12.543262 0 0 0 2.2339722,14.324707 12.543262,12.543262 0 0 0 3.093868,13.949536 12.543262,12.543262 0 0 0 3.922758,13.51132 12.543262,12.543262 0 0 0 4.7170247,13.012126 12.543262,12.543262 0 0 0 5.4720174,12.455054 12.543262,12.543262 0 0 0 6.1830851,11.843205 12.543262,12.543262 0 0 0 6.8460937,11.180196 12.543262,12.543262 0 0 0 7.4579427,10.469128 12.543262,12.543262 0 0 0 8.0150146,9.7141357 12.543262,12.543262 0 0 0 8.514209,8.919869 12.543262,12.543262 0 0 0 8.9524251,8.0904622 12.543262,12.543262 0 0 0 9.327596,7.2310832 12.543262,12.543262 0 0 0 9.6371379,6.3453491 12.543262,12.543262 0 0 0 9.8800171,5.4394613 12.543262,12.543262 0 0 0 10.054683,4.5180705 12.543262,12.543262 0 0 0 10.159587,3.5858276 12.543262,12.543262 0 0 0 10.194727,2.6484172 12.543262,12.543262 0 0 0 10.190592,2.3254395 12.543262,12.543262 0 0 0 10.17819,2.0024618 12.543262,12.543262 0 0 0 10.157003,1.6805176 12.543262,12.543262 0 0 0 10.128064,1.3585734 12.543262,12.543262 0 0 0 10.090857,1.0376628 12.543262,12.543262 0 0 0 10.045382,0.71830241 12.543262,12.543262 0 0 0 9.9911214,0.39945882 12.543262,12.543262 0 0 0 9.9694173,0.28887126 12.543262,12.543262 0 0 0 0.14107666,12.532052 12.543262,12.543262 0 0 0 0.37362061,14.890047 Z" /></g></g></svg>
