<?xml version="1.0" encoding="UTF-8" standalone="no"?>
<!-- Created with Inkscape (http://www.inkscape.org/) -->

<svg
   width="96"
   height="96"
   viewBox="0 0 25.400001 25.4"
   version="1.1"
   id="svg5"
   inkscape:export-filename="Lives.png"
   inkscape:export-xdpi="96"
   inkscape:export-ydpi="96"
   inkscape:version="1.2 (dc2aedaf03, 2022-05-15)"
   sodipodi:docname="Lives.svg"
   xmlns:inkscape="http://www.inkscape.org/namespaces/inkscape"
   xmlns:sodipodi="http://sodipodi.sourceforge.net/DTD/sodipodi-0.dtd"
   xmlns="http://www.w3.org/2000/svg"
   xmlns:svg="http://www.w3.org/2000/svg">
  <sodipodi:namedview
     id="namedview7"
     pagecolor="#ffffff"
     bordercolor="#000000"
     borderopacity="0.25"
     inkscape:showpageshadow="2"
     inkscape:pageopacity="0.0"
     inkscape:pagecheckerboard="0"
     inkscape:deskcolor="#d1d1d1"
     inkscape:document-units="mm"
     showgrid="true"
     inkscape:zoom="5.5731762"
     inkscape:cx="47.728618"
     inkscape:cy="71.323781"
     inkscape:window-width="1920"
     inkscape:window-height="1022"
     inkscape:window-x="0"
     inkscape:window-y="0"
     inkscape:window-maximized="1"
     inkscape:current-layer="layer1">
    <inkscape:grid
       type="xygrid"
       id="grid2865" />
  </sodipodi:namedview>
  <defs
     id="defs2" />
  <g
     inkscape:label="Layer 1"
     inkscape:groupmode="layer"
     id="layer1">
    <path
       id="path3899"
       style="fill:none;fill-opacity:0.999121;stroke:#ffffff;stroke-width:1;stroke-dasharray:none"
       d="M 21.939229 20.996651 A 12.543262 12.543262 0 0 0 21.931995 20.988383 A 12.543262 12.543262 0 0 0 21.715987 20.755322 A 12.543262 12.543262 0 0 0 21.494295 20.527946 A 12.543262 12.543262 0 0 0 21.266402 20.305737 A 12.543262 12.543262 0 0 0 21.033341 20.08973 A 12.543262 12.543262 0 0 0 20.795113 19.879924 A 12.543262 12.543262 0 0 0 20.5512 19.675802 A 12.543262 12.543262 0 0 0 20.302637 19.478398 A 12.543262 12.543262 0 0 0 20.048905 19.287195 A 12.543262 12.543262 0 0 0 19.790007 19.102193 A 12.543262 12.543262 0 0 0 19.526973 18.92391 A 12.543262 12.543262 0 0 0 19.259806 18.752344 A 12.543262 12.543262 0 0 0 18.987988 18.588013 A 12.543262 12.543262 0 0 0 18.712036 18.429883 A 12.543262 12.543262 0 0 0 18.43195 18.279504 A 12.543262 12.543262 0 0 0 18.148763 18.135844 A 12.543262 12.543262 0 0 0 17.861442 17.999418 A 12.543262 12.543262 0 0 0 17.571021 17.870744 A 12.543262 12.543262 0 0 0 17.277498 17.748787 A 12.543262 12.543262 0 0 0 16.980876 17.634583 A 12.543262 12.543262 0 0 0 16.681669 17.528129 A 12.543262 12.543262 0 0 0 16.379879 17.429427 A 12.543262 12.543262 0 0 0 16.075505 17.33796 A 12.543262 12.543262 0 0 0 15.768547 17.254244 A 12.543262 12.543262 0 0 0 15.460038 17.178796 A 12.543262 12.543262 0 0 0 15.149463 17.110583 A 12.543262 12.543262 0 0 0 14.837337 17.050639 A 12.543262 12.543262 0 0 0 14.524178 16.998446 A 12.543262 12.543262 0 0 0 14.209469 16.954521 A 12.543262 12.543262 0 0 0 13.893726 16.918347 A 12.543262 12.543262 0 0 0 13.576949 16.890442 A 12.543262 12.543262 0 0 0 13.260173 16.870288 A 12.543262 12.543262 0 0 0 12.942362 16.857886 A 12.543262 12.543262 0 0 0 12.624552 16.853752 A 12.543262 12.543262 0 0 0 11.687142 16.888892 A 12.543262 12.543262 0 0 0 10.755416 16.994312 A 12.543262 12.543262 0 0 0 9.8335083 17.168461 A 12.543262 12.543262 0 0 0 8.9276204 17.41134 A 12.543262 12.543262 0 0 0 8.0418864 17.720882 A 12.543262 12.543262 0 0 0 7.1825073 18.096053 A 12.543262 12.543262 0 0 0 6.3531006 18.534269 A 12.543262 12.543262 0 0 0 5.5588338 19.033464 A 12.543262 12.543262 0 0 0 4.8038411 19.590535 A 12.543262 12.543262 0 0 0 4.0932902 20.202384 A 12.543262 12.543262 0 0 0 3.4297648 20.86591 A 12.543262 12.543262 0 0 0 3.3775716 20.926888 A 12.543262 12.543262 0 0 0 12.68398 25.075472 A 12.543262 12.543262 0 0 0 21.939229 20.996651 z " />
    <path
       id="path4000"
       style="fill:none;fill-opacity:0.999121;stroke:#ffffff;stroke-width:1;stroke-dasharray:none"
       d="M 12.68398 -0.011368815 A 12.543262 12.543262 0 0 0 9.9694173 0.28887126 A 12.543262 12.543262 0 0 1 9.9911214 0.39945882 A 12.543262 12.543262 0 0 1 10.045382 0.71830241 A 12.543262 12.543262 0 0 1 10.090857 1.0376628 A 12.543262 12.543262 0 0 1 10.128064 1.3585734 A 12.543262 12.543262 0 0 1 10.157003 1.6805176 A 12.543262 12.543262 0 0 1 10.17819 2.0024618 A 12.543262 12.543262 0 0 1 10.190592 2.3254395 A 12.543262 12.543262 0 0 1 10.194727 2.6484172 A 12.543262 12.543262 0 0 1 10.159587 3.5858276 A 12.543262 12.543262 0 0 1 10.054683 4.5180705 A 12.543262 12.543262 0 0 1 9.8800171 5.4394613 A 12.543262 12.543262 0 0 1 9.6371379 6.3453491 A 12.543262 12.543262 0 0 1 9.327596 7.2310832 A 12.543262 12.543262 0 0 1 8.9524251 8.0904622 A 12.543262 12.543262 0 0 1 8.514209 8.919869 A 12.543262 12.543262 0 0 1 8.0150146 9.7141357 A 12.543262 12.543262 0 0 1 7.4579427 10.469128 A 12.543262 12.543262 0 0 1 6.8460937 11.180196 A 12.543262 12.543262 0 0 1 6.1830851 11.843205 A 12.543262 12.543262 0 0 1 5.4720174 12.455054 A 12.543262 12.543262 0 0 1 4.7170247 13.012126 A 12.543262 12.543262 0 0 1 3.922758 13.51132 A 12.543262 12.543262 0 0 1 3.093868 13.949536 A 12.543262 12.543262 0 0 1 2.2339722 14.324707 A 12.543262 12.543262 0 0 1 1.3487549 14.634249 A 12.543262 12.543262 0 0 1 0.44235026 14.877128 A 12.543262 12.543262 0 0 1 0.37362061 14.890047 A 12.543262 12.543262 0 0 0 3.3775716 20.926888 A 12.543262 12.543262 0 0 1 3.4297648 20.86591 A 12.543262 12.543262 0 0 1 4.0932902 20.202384 A 12.543262 12.543262 0 0 1 4.8038411 19.590535 A 12.543262 12.543262 0 0 1 5.5588338 19.033464 A 12.543262 12.543262 0 0 1 6.3531006 18.534269 A 12.543262 12.543262 0 0 1 7.1825073 18.096053 A 12.543262 12.543262 0 0 1 8.0418864 17.720882 A 12.543262 12.543262 0 0 1 8.9276204 17.41134 A 12.543262 12.543262 0 0 1 9.8335083 17.168461 A 12.543262 12.543262 0 0 1 10.755416 16.994312 A 12.543262 12.543262 0 0 1 11.687142 16.888892 A 12.543262 12.543262 0 0 1 12.624552 16.853752 A 12.543262 12.543262 0 0 1 12.942362 16.857886 A 12.543262 12.543262 0 0 1 13.260173 16.870288 A 12.543262 12.543262 0 0 1 13.576949 16.890442 A 12.543262 12.543262 0 0 1 13.893726 16.918347 A 12.543262 12.543262 0 0 1 14.209469 16.954521 A 12.543262 12.543262 0 0 1 14.524178 16.998446 A 12.543262 12.543262 0 0 1 14.837337 17.050639 A 12.543262 12.543262 0 0 1 15.149463 17.110583 A 12.543262 12.543262 0 0 1 15.460038 17.178796 A 12.543262 12.543262 0 0 1 15.768547 17.254244 A 12.543262 12.543262 0 0 1 16.075505 17.33796 A 12.543262 12.543262 0 0 1 16.379879 17.429427 A 12.543262 12.543262 0 0 1 16.681669 17.528129 A 12.543262 12.543262 0 0 1 16.980876 17.634583 A 12.543262 12.543262 0 0 1 17.277498 17.748787 A 12.543262 12.543262 0 0 1 17.571021 17.870744 A 12.543262 12.543262 0 0 1 17.861442 17.999418 A 12.543262 12.543262 0 0 1 18.148763 18.135844 A 12.543262 12.543262 0 0 1 18.43195 18.279504 A 12.543262 12.543262 0 0 1 18.712036 18.429883 A 12.543262 12.543262 0 0 1 18.987988 18.588013 A 12.543262 12.543262 0 0 1 19.259806 18.752344 A 12.543262 12.543262 0 0 1 19.526973 18.92391 A 12.543262 12.543262 0 0 1 19.790007 19.102193 A 12.543262 12.543262 0 0 1 20.048905 19.287195 A 12.543262 12.543262 0 0 1 20.302637 19.478398 A 12.543262 12.543262 0 0 1 20.5512 19.675802 A 12.543262 12.543262 0 0 1 20.795113 19.879924 A 12.543262 12.543262 0 0 1 21.033341 20.08973 A 12.543262 12.543262 0 0 1 21.266402 20.305737 A 12.543262 12.543262 0 0 1 21.494295 20.527946 A 12.543262 12.543262 0 0 1 21.715987 20.755322 A 12.543262 12.543262 0 0 1 21.931995 20.988383 A 12.543262 12.543262 0 0 1 21.939229 20.996651 A 12.543262 12.543262 0 0 0 24.946798 15.165999 A 12.543262 12.543262 0 0 1 24.482227 15.041459 A 12.543262 12.543262 0 0 1 23.596493 14.731917 A 12.543262 12.543262 0 0 1 22.737113 14.356746 A 12.543262 12.543262 0 0 1 21.907707 13.91853 A 12.543262 12.543262 0 0 1 21.11344 13.419336 A 12.543262 12.543262 0 0 1 20.358447 12.862264 A 12.543262 12.543262 0 0 1 19.647896 12.250415 A 12.543262 12.543262 0 0 1 18.984371 11.587406 A 12.543262 12.543262 0 0 1 18.372522 10.876339 A 12.543262 12.543262 0 0 1 17.81545 10.121346 A 12.543262 12.543262 0 0 1 17.316256 9.3270793 A 12.543262 12.543262 0 0 1 16.87804 8.4976725 A 12.543262 12.543262 0 0 1 16.502869 7.6382935 A 12.543262 12.543262 0 0 1 16.193327 6.7525594 A 12.543262 12.543262 0 0 1 15.950448 5.8466715 A 12.543262 12.543262 0 0 1 15.776298 4.9252808 A 12.543262 12.543262 0 0 1 15.670878 3.9930379 A 12.543262 12.543262 0 0 1 15.635738 3.0556274 A 12.543262 12.543262 0 0 1 15.670878 2.118217 A 12.543262 12.543262 0 0 1 15.776298 1.1859741 A 12.543262 12.543262 0 0 1 15.922026 0.41444499 A 12.543262 12.543262 0 0 0 12.68398 -0.011368815 z " />
    <path
       id="path3997"
       style="fill:none;fill-opacity:0.999121;stroke:#ffffff;stroke-width:1;stroke-dasharray:none"
       d="M 15.922026 0.41444499 A 12.543262 12.543262 0 0 0 15.776298 1.1859741 A 12.543262 12.543262 0 0 0 15.670878 2.118217 A 12.543262 12.543262 0 0 0 15.635738 3.0556274 A 12.543262 12.543262 0 0 0 15.670878 3.9930379 A 12.543262 12.543262 0 0 0 15.776298 4.9252808 A 12.543262 12.543262 0 0 0 15.950448 5.8466715 A 12.543262 12.543262 0 0 0 16.193327 6.7525594 A 12.543262 12.543262 0 0 0 16.502869 7.6382935 A 12.543262 12.543262 0 0 0 16.87804 8.4976725 A 12.543262 12.543262 0 0 0 17.316256 9.3270793 A 12.543262 12.543262 0 0 0 17.81545 10.121346 A 12.543262 12.543262 0 0 0 18.372522 10.876339 A 12.543262 12.543262 0 0 0 18.984371 11.587406 A 12.543262 12.543262 0 0 0 19.647896 12.250415 A 12.543262 12.543262 0 0 0 20.358447 12.862264 A 12.543262 12.543262 0 0 0 21.11344 13.419336 A 12.543262 12.543262 0 0 0 21.907707 13.91853 A 12.543262 12.543262 0 0 0 22.737113 14.356746 A 12.543262 12.543262 0 0 0 23.596493 14.731917 A 12.543262 12.543262 0 0 0 24.482227 15.041459 A 12.543262 12.543262 0 0 0 24.946798 15.165999 A 12.543262 12.543262 0 0 0 25.227401 12.532052 A 12.543262 12.543262 0 0 0 15.922026 0.41444499 z " />
    <path
       id="path3963"
       style="fill:none;fill-opacity:0.999121;stroke:#ffffff;stroke-width:1;stroke-dasharray:none"
       d="M 0.37362061 14.890047 A 12.543262 12.543262 0 0 0 0.44235026 14.877128 A 12.543262 12.543262 0 0 0 1.3487549 14.634249 A 12.543262 12.543262 0 0 0 2.2339722 14.324707 A 12.543262 12.543262 0 0 0 3.093868 13.949536 A 12.543262 12.543262 0 0 0 3.922758 13.51132 A 12.543262 12.543262 0 0 0 4.7170247 13.012126 A 12.543262 12.543262 0 0 0 5.4720174 12.455054 A 12.543262 12.543262 0 0 0 6.1830851 11.843205 A 12.543262 12.543262 0 0 0 6.8460937 11.180196 A 12.543262 12.543262 0 0 0 7.4579427 10.469128 A 12.543262 12.543262 0 0 0 8.0150146 9.7141357 A 12.543262 12.543262 0 0 0 8.514209 8.919869 A 12.543262 12.543262 0 0 0 8.9524251 8.0904622 A 12.543262 12.543262 0 0 0 9.327596 7.2310832 A 12.543262 12.543262 0 0 0 9.6371379 6.3453491 A 12.543262 12.543262 0 0 0 9.8800171 5.4394613 A 12.543262 12.543262 0 0 0 10.054683 4.5180705 A 12.543262 12.543262 0 0 0 10.159587 3.5858276 A 12.543262 12.543262 0 0 0 10.194727 2.6484172 A 12.543262 12.543262 0 0 0 10.190592 2.3254395 A 12.543262 12.543262 0 0 0 10.17819 2.0024618 A 12.543262 12.543262 0 0 0 10.157003 1.6805176 A 12.543262 12.543262 0 0 0 10.128064 1.3585734 A 12.543262 12.543262 0 0 0 10.090857 1.0376628 A 12.543262 12.543262 0 0 0 10.045382 0.71830241 A 12.543262 12.543262 0 0 0 9.9911214 0.39945882 A 12.543262 12.543262 0 0 0 9.9694173 0.28887126 A 12.543262 12.543262 0 0 0 0.14107666 12.532052 A 12.543262 12.543262 0 0 0 0.37362061 14.890047 z " />
  </g>
</svg>
